<svg viewBox="0 0 59 92" xmlns="http://www.w3.org/2000/svg" fill-rule="evenodd" clip-rule="evenodd" stroke-linejoin="round" stroke-miterlimit="2"><path d="M46.751 1.562H10.284c-3.488 0-6.306 2.759-6.306 6.157v72.144c0 3.385 2.818 6.144 6.306 6.144h36.467c3.484 0 6.316-2.759 6.316-6.144V7.719c0-3.398-2.832-6.157-6.316-6.157zm1.59 68.424H8.707v-58.04h39.634v58.04zM36.984 7.809H20.06V6.013h16.924v1.796zm7.229-.82c0 .873-.721 1.576-1.617 1.576s-1.618-.717-1.618-1.576c0-.87.722-1.576 1.618-1.576.896 0 1.617.706 1.617 1.576zm-7.988 72.458H20.823V74.84h15.402v4.607z" fill="#030404" fill-rule="nonzero"/></svg>