<svg viewBox="0 0 40 45" xmlns="http://www.w3.org/2000/svg" fill-rule="evenodd" clip-rule="evenodd" stroke-linejoin="round" stroke-miterlimit="2"><g fill="#0a050b" fill-rule="nonzero"><path d="M32.957 29.301h2.58c.711 0 1.29.579 1.29 1.29 0 .711-.579 1.29-1.29 1.29h-2.58a1.291 1.291 0 100 2.581h2.58c.711 0 1.29.579 1.29 1.29 0 .711-.579 1.29-1.29 1.29h-2.58a1.291 1.291 0 100 2.581c.711 0 1.29.579 1.29 1.29 0 .711-.579 1.29-1.29 1.29H22.148c-1.251 0-2.487-.2-3.673-.596l-4.872-1.624V24.018c2.024-.385 4.005-1.666 5.793-3.764 1.746-2.049 3.162-4.766 3.787-7.268l.459-1.834h.283a2.582 2.582 0 012.58 2.58v1.289c0 1.733-.542 5.056-1.235 6.538h-2.635a1.291 1.291 0 100 2.581h12.902a1.291 1.291 0 010 2.58h-2.58a1.291 1.291 0 100 2.581zM11.023 40.913c0 .711-.579 1.29-1.291 1.29H3.281V21.559h6.451c.712 0 1.291.579 1.291 1.291v18.063zm27.396-12.902a3.855 3.855 0 00.989-2.581 3.876 3.876 0 00-3.871-3.871h-7.513c.744-2.257 1.062-5.253 1.062-6.538v-1.289a5.168 5.168 0 00-5.161-5.161h-1.29c-.592 0-1.108.403-1.252.977l-.703 2.812c-.984 3.938-4.111 8.283-7.347 9.072a3.875 3.875 0 00-3.601-2.453H1.991a1.29 1.29 0 00-1.29 1.29v23.225c0 .712.578 1.29 1.29 1.29h7.741a3.875 3.875 0 003.494-2.207l4.434 1.478a14.14 14.14 0 004.488.729h10.809a3.875 3.875 0 003.598-5.297 3.878 3.878 0 002.853-3.735 3.85 3.85 0 00-.989-2.58 3.855 3.855 0 00.989-2.581 3.85 3.85 0 00-.989-2.58zM26.505 4.7V2.034a1.29 1.29 0 10-2.58 0V4.7a1.29 1.29 0 102.58 0zm-6.764 3.558a1.29 1.29 0 000-1.825l-1.825-1.824a1.29 1.29 0 10-1.824 1.824l1.824 1.825a1.29 1.29 0 001.825 0zm12.773 0l1.825-1.825a1.291 1.291 0 00-1.825-1.824l-1.825 1.824a1.29 1.29 0 101.825 1.825z"/><path d="M7.152 37.042a1.29 1.29 0 11-.002 2.582 1.29 1.29 0 01.002-2.582z"/></g></svg>