<svg viewBox="0 0 192 175" xmlns="http://www.w3.org/2000/svg" fill-rule="evenodd" clip-rule="evenodd" stroke-linejoin="round" stroke-miterlimit="2"><g fill-rule="nonzero"><path d="M158.775 46.278V2.551H32.892v43.727L4.108 66.838v106.824h183.451V66.838l-28.784-20.56zm-89.458 72.669l-54.46 38.898V80.047l54.46 38.9zm26.516-5.731l69.58 49.697H26.254l69.579-49.697zm26.517 5.731l54.459-38.9v77.798l-54.459-38.898zm50.587-49.343l-14.162 10.114V59.487l14.162 10.117zM148.026 13.3v74.098l-34.923 24.943-17.27-12.336-17.269 12.336-34.923-24.943V13.3h104.385zM32.892 79.718L18.729 69.604l14.163-10.117v20.231z"/><path d="M58.827 27.222h37.006v10.749H58.827V27.222zm0 24.67h74.012v10.751H58.827V51.892zm0 24.673h74.012v10.749H58.827V76.565z"/></g></svg>