<svg viewBox="0 0 159 175" xmlns="http://www.w3.org/2000/svg" fill-rule="evenodd" clip-rule="evenodd" stroke-linejoin="round" stroke-miterlimit="2"><g fill-rule="nonzero"><path d="M151.373 2.114H17.009a5.038 5.038 0 00-5.039 5.039V22.27H6.929a5.04 5.04 0 000 10.078h5.039v20.485H6.929a5.039 5.039 0 000 10.077h5.039v20.156H6.929a5.039 5.039 0 000 10.077h5.039V113.3H6.929a5.039 5.039 0 000 10.077h5.039v20.488H6.929a5.04 5.04 0 000 10.078h5.039v15.117a5.039 5.039 0 005.039 5.039h134.366a5.039 5.039 0 005.039-5.039V7.153a5.039 5.039 0 00-5.039-5.039zM22.047 153.943h5.039a5.039 5.039 0 000-10.078h-5.039v-20.488h5.039a5.039 5.039 0 000-10.077h-5.039V93.143h5.039a5.039 5.039 0 000-10.077h-5.039V62.912h5.039a5.04 5.04 0 000-10.078h-5.039V32.348h5.039a5.04 5.04 0 000-10.078h-5.039V12.191h20.155v151.831H22.047v-10.079zm124.288 10.079H52.279V12.191h94.056v151.831z"/><path d="M67.395 62.91h63.824a5.039 5.039 0 005.039-5.039V27.307a5.039 5.039 0 00-5.039-5.038H67.395a5.039 5.039 0 00-5.039 5.038v30.564a5.039 5.039 0 005.039 5.039zm5.038-30.564h53.747v20.487H72.433V32.346zm48.707 111.519H77.474a5.038 5.038 0 100 10.078h43.666a5.04 5.04 0 000-10.078zm0-21.835H77.474a5.039 5.039 0 100 10.077h43.666a5.038 5.038 0 100-10.077z"/></g></svg>