<svg viewBox="0 0 709 538" xmlns="http://www.w3.org/2000/svg" fill-rule="evenodd" clip-rule="evenodd" stroke-linejoin="round" stroke-miterlimit="2"><path fill="#fff" d="M3.111 21.095h702.112V534.8H3.111z"/><path fill="url(#_Linear1)" d="M3.111 3.316h702.112v458.722H3.111z"/><g fill="#030404"><path d="M147.809 210.834c36.278 0 65.732 37.35 65.732 83.356 0 46.006-29.454 83.356-65.732 83.356s-65.731-37.35-65.731-83.356c0-46.006 29.453-83.356 65.731-83.356zm-3.323 12.799c.91-.057 1.825-.086 2.745-.086 30.378 0 55.042 31.654 55.042 70.643 0 38.989-24.664 70.643-55.042 70.643-.92 0-1.835-.029-2.745-.086V223.633z"/><circle cx="238.028" cy="349.015" r="27.81"/><circle cx="473.409" cy="349.015" r="27.81"/><circle cx="639.833" cy="349.015" r="27.81"/><path d="M306.801 202.94l-37.543 164.398s-1.555 7.711 8.538 6.321c10.093-1.39 9.365-17.572 9.365-17.572l10.22-53.645 35.346 62.391h2.221l33.428-64.815 15.552 71.399 1.919.101 58.977-.101-39.184-168.55-47.565 91.323-51.274-91.25zm285.297 35.246s6.469.188 5.365-6.597c-1.105-6.785-18.778-31.401-65.169-16.569-20.1 6.427-30.816 37.623-21.346 66.842 12.388 38.22 60.172 70.609 45.413 79.966-8.453 5.36-19.584 1.875-25.918-3.813-6.334-5.688-13.96-18.614-21.328-15.124-7.369 3.49-.552 21.652 26.417 33.027 26.969 11.376 73.359-7.02 69.966-47.093-3.393-40.072-39.64-72.134-46.374-86.607-9.223-19.822-.061-21.837 10.532-17.774 7.946 3.047 16.403 14.351 22.442 13.742z"/></g><g fill="#999"><path d="M151.69 210.834c36.278 0 65.731 37.35 65.731 83.356 0 46.006-29.453 83.356-65.731 83.356-36.278 0-65.732-37.35-65.732-83.356 0-46.006 29.454-83.356 65.732-83.356zm-3.323 12.799a43.875 43.875 0 012.745-.086c30.378 0 55.041 31.654 55.041 70.643 0 38.989-24.663 70.643-55.041 70.643-.92 0-1.836-.029-2.745-.086V223.633z"/><circle cx="241.908" cy="349.015" r="27.81"/><circle cx="477.29" cy="349.015" r="27.81"/><circle cx="643.714" cy="349.015" r="27.81"/><path d="M310.681 202.94l-37.542 164.398s-1.556 7.711 8.537 6.321c10.093-1.39 9.365-17.572 9.365-17.572l10.22-53.645 35.346 62.391h2.222l33.427-64.815 15.552 71.399 1.919.101 58.977-.101-39.183-168.55-47.566 91.323-51.274-91.25zm285.297 35.246s6.47.188 5.366-6.597c-1.105-6.785-18.778-31.401-65.17-16.569-20.099 6.427-30.816 37.623-21.345 66.842 12.388 38.22 60.172 70.609 45.413 79.966-8.453 5.36-19.584 1.875-25.918-3.813-6.334-5.688-13.961-18.614-21.329-15.124s-.551 21.652 26.418 33.027c26.969 11.376 73.359-7.02 69.966-47.093-3.394-40.072-39.64-72.134-46.374-86.607-9.223-19.822-.061-21.837 10.532-17.774 7.946 3.047 16.403 14.351 22.441 13.742z"/></g><g fill="#fff"><path d="M157.245 210.834c36.279 0 65.732 37.35 65.732 83.356 0 46.006-29.453 83.356-65.732 83.356-36.278 0-65.731-37.35-65.731-83.356 0-46.006 29.453-83.356 65.731-83.356zm-3.322 12.799a43.843 43.843 0 012.744-.086c30.378 0 55.042 31.654 55.042 70.643 0 38.989-24.664 70.643-55.042 70.643-.92 0-1.835-.029-2.744-.086V223.633z"/><circle cx="247.464" cy="349.015" r="27.81"/><circle cx="482.846" cy="349.015" r="27.81"/><circle cx="649.269" cy="349.015" r="27.81"/><path d="M316.237 202.94l-37.543 164.398s-1.555 7.711 8.538 6.321c10.093-1.39 9.365-17.572 9.365-17.572l10.22-53.645 35.346 62.391h2.221l33.428-64.815 15.552 71.399 1.919.101 58.977-.101-39.184-168.55-47.565 91.323-51.274-91.25zm285.297 35.246s6.469.188 5.365-6.597c-1.105-6.785-18.778-31.401-65.169-16.569-20.1 6.427-30.816 37.623-21.346 66.842 12.388 38.22 60.172 70.609 45.413 79.966-8.453 5.36-19.584 1.875-25.918-3.813-6.334-5.688-13.96-18.614-21.328-15.124-7.369 3.49-.552 21.652 26.417 33.027 26.969 11.376 73.359-7.02 69.966-47.093-3.393-40.072-39.64-72.134-46.374-86.607-9.223-19.822-.061-21.837 10.532-17.774 7.946 3.047 16.404 14.351 22.442 13.742z"/></g><g fill="#fff"><path d="M654.277 208.264c-11.376 0-20.612 9.236-20.612 20.612 0 11.376 9.236 20.612 20.612 20.612 11.376 0 20.612-9.236 20.612-20.612 0-11.376-9.236-20.612-20.612-20.612zm0 4.166c9.076 0 16.445 7.369 16.445 16.446 0 9.076-7.369 16.445-16.445 16.445-9.077 0-16.446-7.369-16.446-16.445 0-9.077 7.369-16.446 16.446-16.446z"/><path d="M654.362 230.691h-4.465v7.689h-2.52v-19.009h6.293c2.141 0 3.788.488 4.941 1.463 1.154.974 1.73 2.393 1.73 4.256 0 1.183-.32 2.215-.959 3.094-.64.879-1.53 1.536-2.67 1.971l4.465 8.069v.156h-2.69l-4.125-7.689zm-4.465-2.05h3.851c1.245 0 2.235-.323 2.97-.968.736-.645 1.103-1.509 1.103-2.59 0-1.177-.35-2.079-1.051-2.707-.7-.628-1.712-.946-3.035-.955h-3.838v7.22z" fill-rule="nonzero"/></g><path d="M125.87 181.968l.37 1.626c-1.256-.838-2.858-1.577-4.804-2.217-.123 2.906-1.386 5.05-3.787 6.429-2.402 1.38-5.18 2.07-8.333 2.07-2.414 0-4.305-.438-5.672-1.312-1.368-.875-2.051-2.088-2.051-3.64 0-1.355.449-2.451 1.349-3.289.899-.837 2.001-1.416 3.307-1.737 1.305-.32 2.623-.48 3.954-.48 1.946 0 3.572.111 4.877.333a180.02 180.02 0 00-1.459-2.698c-.875-1.601-1.515-2.944-1.922-4.028-.406-1.084-.61-2.057-.61-2.919 0-1.675.844-3.147 2.532-4.416 1.687-1.268 3.676-1.903 5.968-1.903 1.478 0 2.648.277 3.51.832.862.554 1.293 1.287 1.293 2.198 0 1.306-.511 2.378-1.533 3.215-1.023.838-2.236 1.367-3.64 1.589 1.429-2.044 2.143-3.769 2.143-5.173 0-1.281-.591-1.922-1.773-1.922-.518 0-1.011.167-1.479.499a3.589 3.589 0 00-1.127 1.349c-.283.567-.425 1.219-.425 1.958 0 .838.154 1.639.462 2.402.308.764.856 1.848 1.645 3.252.788 1.404 1.41 2.605 1.866 3.603.456.998.733 2.014.831 3.049.518.147 1.263.351 2.236.609.973.259 1.73.499 2.272.721zm-10.531-1.589a92.606 92.606 0 00-1.072-.129c-.32-.037-.615-.068-.886-.093a10.084 10.084 0 00-.887-.037c-1.232 0-2.359.247-3.381.739-1.023.493-1.836 1.158-2.439 1.996a4.63 4.63 0 00-.906 2.771c0 1.059.364 1.928 1.09 2.605.727.678 1.657 1.016 2.79 1.016 1.602 0 3.006-.652 4.213-1.958 1.207-1.306 1.811-2.808 1.811-4.508 0-.739-.111-1.54-.333-2.402zm21.1-5.949l-4.102 11.529c-.222.542-.333 1.022-.333 1.441 0 .813.493 1.219 1.479 1.219.591 0 1.17-.123 1.736-.369a9.912 9.912 0 001.7-.961 37.648 37.648 0 011.441-.961l.444.37c-1.207 1.01-2.396 1.749-3.566 2.217-1.17.468-2.433.702-3.788.702-1.503 0-2.691-.246-3.566-.739-.874-.493-1.312-1.17-1.312-2.032 0-.592.124-1.183.37-1.774l3.363-9.312 6.134-1.33zm-.887-8.573c.936 0 1.7.295 2.291.886.591.592.887 1.355.887 2.292 0 .911-.302 1.656-.906 2.235-.603.579-1.361.869-2.272.869-.887 0-1.626-.296-2.217-.887-.592-.592-.887-1.331-.887-2.217 0-.912.289-1.669.868-2.273.579-.604 1.324-.905 2.236-.905zm13.377 8.942l-5.063 13.377v.443c.148 0 .296-.111.444-.332a4475.77 4475.77 0 011.958-4.268 34.717 34.717 0 012.531-4.601c.924-1.404 1.977-2.568 3.16-3.492 1.182-.924 2.439-1.386 3.769-1.386.887 0 1.601.21 2.143.629.542.418.813 1.01.813 1.773 0 .345-.123.813-.37 1.404l-2.919 7.169c-.295.838-.443 1.38-.443 1.626 0 .887.529 1.33 1.589 1.33a4.38 4.38 0 001.589-.314 10.436 10.436 0 001.663-.831 60.041 60.041 0 011.699-.998l.296.444c-2.464 1.896-4.952 2.845-7.464 2.845-1.454 0-2.587-.308-3.4-.924-.813-.616-1.219-1.429-1.219-2.439 0-.64.184-1.33.554-2.069l3.252-8.24.184-.333c0-.074-.061-.111-.184-.111-.05 0-.197.086-.444.259a15.783 15.783 0 00-2.365 2.439 32.64 32.64 0 00-2.032 2.956 59.527 59.527 0 00-2.088 3.732 292.453 292.453 0 01-1.644 3.141c-.271.567-.579.973-.924 1.219-.345.247-.875.37-1.589.37-2.242 0-3.363-.887-3.363-2.661 0-.665.148-1.342.444-2.032l3.362-9.053 6.061-1.072zm28.896 11.603l.259.444c-2.759 1.896-5.715 2.845-8.869 2.845-1.773 0-3.368-.277-4.785-.832-1.416-.554-2.125-1.57-2.125-3.048 0-1.774.561-3.548 1.682-5.321a14.108 14.108 0 014.305-4.361c1.749-1.133 3.51-1.699 5.284-1.699 2.118 0 3.178.985 3.178 2.956 0 .911-.222 1.854-.666 2.827-.443.973-1.003 1.761-1.681 2.365-.677.603-1.373.905-2.088.905-.468 0-.85-.148-1.145-.444a1.456 1.456 0 01-.444-1.071c0-.591.197-1.096.592-1.515.394-.419 1.047-.93 1.958-1.534.912-.603 1.546-1.065 1.903-1.385.357-.321.536-.727.536-1.22 0-.271-.111-.517-.333-.739-.221-.222-.468-.332-.739-.332-1.158 0-2.254.671-3.288 2.013-1.035 1.343-1.873 2.944-2.513 4.804-.641 1.86-.961 3.344-.961 4.453 0 1.527.862 2.291 2.587 2.291 1.897 0 4.348-.801 7.353-2.402zm16.148 0l.37.554c-1.601 1.01-3.16 1.719-4.675 2.125-1.515.407-3.27.61-5.265.61-3.966 0-5.95-1.207-5.95-3.621 0-1.183.358-2.747 1.072-4.693 1.774-4.558 4.791-6.837 9.053-6.837 2.415 0 3.622.887 3.622 2.661 0 1.404-.696 2.765-2.088 4.083-1.392 1.318-3.32 2.47-5.783 3.455a5.504 5.504 0 00-.185 1.404c0 .863.259 1.522.776 1.977.517.456 1.207.684 2.069.684 2.291 0 4.619-.801 6.984-2.402zm-9.57-2.476c1.133-.911 2.365-2.241 3.695-3.991 1.33-1.749 1.995-3.14 1.995-4.175 0-.517-.295-.776-.886-.776-.887 0-1.811 1.09-2.772 3.27-.961 2.18-1.638 4.071-2.032 5.672zm58.126-17.293l-7.871 21.986-6.208 1.183 6.392-17.294-6.651 3.621.444-1.699 13.894-7.797zm4.101 24.388h-1.773c.936-.69 1.995-1.564 3.177-2.623a44.83 44.83 0 003.419-3.419c1.096-1.219 1.94-2.272 2.531-3.159-.887.296-1.688.443-2.402.443-1.798 0-3.27-.511-4.416-1.533-1.145-1.022-1.718-2.384-1.718-4.083 0-1.651.48-3.203 1.441-4.656.961-1.454 2.236-2.605 3.824-3.455a10.687 10.687 0 015.118-1.275c1.503 0 2.846.277 4.028.831 1.183.555 2.094 1.337 2.735 2.347.64 1.01.96 2.192.96 3.547 0 1.798-.572 3.548-1.718 5.247-1.145 1.7-2.568 3.234-4.268 4.601-1.7 1.367-3.646 2.728-5.838 4.083a332.724 332.724 0 01-5.1 3.104zm10.014-23.058c-.788 0-1.527.382-2.217 1.145-.813.961-1.681 2.575-2.605 4.841-.924 2.267-1.386 4.053-1.386 5.358 0 .69.179 1.232.536 1.626.357.394.856.591 1.497.591.837 0 1.638-.431 2.402-1.293.763-.862 1.428-1.915 1.995-3.159a23.481 23.481 0 001.33-3.659c.321-1.194.481-2.186.481-2.974 0-.739-.191-1.337-.573-1.792a1.82 1.82 0 00-1.46-.684zm11.936 6.208l-1.22-.702c1.109-1.725 2.199-3.19 3.271-4.398 1.071-1.207 2.161-1.81 3.27-1.81 1.133 0 2.679.209 4.638.628 1.958.419 3.368.628 4.231.628 1.33 0 2.549-.246 3.658-.739l.332.185c-1.65 1.921-3.646 5.013-5.986 9.275-2.34 4.262-4.089 7.797-5.247 10.605l-8.277 1.959c2.389-3.893 4.785-7.378 7.187-10.458 2.402-3.079 5.031-5.801 7.889-8.166.148-.123.419-.345.813-.665.394-.321.721-.592.979-.813.259-.222.585-.505.98-.85-3.967 2.537-7.723 3.806-11.271 3.806-1.872 0-3.289-.173-4.249-.517-.468.886-.801 1.564-.998 2.032zm36.804-8.167h1.7c-1.503 1.035-3.116 2.427-4.841 4.176-1.724 1.749-3.153 3.412-4.286 4.989.837-.296 1.626-.444 2.365-.444 1.847 0 3.332.524 4.453 1.571 1.12 1.047 1.681 2.383 1.681 4.009 0 1.7-.474 3.264-1.423 4.693-.948 1.429-2.223 2.568-3.824 3.418a10.798 10.798 0 01-5.137 1.275c-2.34 0-4.212-.61-5.616-1.829-1.405-1.22-2.107-2.827-2.107-4.823 0-1.847.592-3.627 1.774-5.339a21.66 21.66 0 014.342-4.619c1.712-1.367 3.658-2.71 5.838-4.028a721.42 721.42 0 015.081-3.049zm-10.088 22.985c.764 0 1.466-.357 2.107-1.072.492-.64 1.071-1.626 1.736-2.956a31.806 31.806 0 001.682-4.009c.455-1.343.683-2.445.683-3.308 0-.665-.191-1.188-.572-1.57-.382-.382-.881-.573-1.497-.573-1.478 0-2.882 1.38-4.213 4.139-1.33 2.759-1.995 5.05-1.995 6.873 0 .739.197 1.336.591 1.792.394.456.887.684 1.478.684z" fill="#fff" fill-rule="nonzero"/><g fill="#030404" fill-rule="nonzero"><path d="M55.413 512.005c1.281 0 1.859-.499 2.759-1.773 7.521-10.637 15.303-22.382 21.384-32.133 1.818-.609 3.469-2.327 3.767-3.989.288-1.606-1.233-2.652-2.88-2.652-2.257 0-3.644 1.267-4.979 2.929-18.089 2.881-30.835 4.598-31.69 9.363-.676 3.767 7.529 7.978 7.956 7.978 1.343 0 4.484-2.549 4.673-3.601.09-.499-5.9-3.158-5.771-3.878.229-1.275 20.805-4.765 21.05-4.765.244 0 .468.111.408.443-.05.277-.312.72-.666 1.33-15.728 25.429-21.267 28.421-21.546 29.972-.119.665.471.776 1.814.776h3.721zm31.963-20c4.076-5.036 11.743-14.79 12.558-19.335.179-.997-.009-1.988-2.144-1.988-3.416 0-13.488 18.06-17.002 23.708-.869 1.443-6.495 5.261-8.797 6.87-.496.388-.799 1.053-1.017 2.273-.229 1.275-.468 2.605-.224 2.605.427 0 1.582-.997 3.164-1.995l.102.111c-.7 1.164-2.448 3.765-2.656 4.927-.229 1.273.404 1.826 1.807 1.826 1.525 0 5.67-3.376 10.627-6.863 6.004-4.215 9.119-5.934 9.485-5.934.061 0 .102.111.072.277-.04.222-6.381 8.703-6.649 10.196-.308 1.716 1.047 2.324 2.633 2.324 3.173 0 7.748-2.379 10.528-3.928 2.029-1.107 3.123-2.104 3.382-3.546.218-1.22.081-2.495-.163-2.495-.366 0-7.12 4.658-8.584 4.658-.305 0-.407-.111-.357-.388.218-1.22 7.557-9.475 8.094-12.471.169-.942-.456-1.878-2.347-1.878-3.661 0-12.141 7.141-18.067 10.245h-.123l5.678-9.199z"/><path d="M102.866 504.304c-.875 4.878 2.088 6.703 6.662 6.703 5.19 0 10.322-2.433 13.776-4.703 1.471-1.056 1.784-1.778 2.062-3.327.139-.774.144-1.825-.283-1.825-.305 0-.902.608-2.078 1.382-1.58.996-7.655 4.27-11.502 4.27-1.526 0-2.925-1.056-2.765-1.945.09-.5.598-.611 1.636-.611 2.137 0 13.448-3.206 14.443-8.752.675-3.763-1.442-4.869-4.488-4.869-6.35 0-15.863 4.758-16.997 11.078l-.466 2.599zm16.094-8.087c-.428 2.385-7.585 4.493-9.863 4.603 1.383-2.606 5.449-6.211 8.625-6.211 1.038 0 1.407.665 1.238 1.608zm51.969-15.57c-.915 5.097-5.368 15.291-12.875 17.009-1.656.387-4.461.72-4.809 2.659-.358 1.994.815 2.936 1.913 2.936 10.616 0 19.893-12.299 21.672-22.216 1.262-7.033-1.25-10.353-6.92-10.353-14.154 0-30.933 39.106-31.192 40.547-.328 1.828.012 2.992 1.477 2.992 4.576 0 9.852-12.743 10.368-15.624.179-.997 11.683-22.603 17.967-22.603 2.867 0 2.766 2.604 2.399 4.653zm11.818 10.639c-.444.776-.918 1.718-1.546 2.494-1.264 1.607-7.693 6.152-9.65 7.537-.699.499-.85.998-1.128 2.55-.269 1.496-.347 2.271.019 2.271.305 0 1.937-1.274 3.448-2.216l.103.111c-.747 1.441-2.204 3.101-2.482 4.65-.288 1.605.518 2.214 2.653 2.214 4.637 0 10.931-4.15 12.653-5.257.618-.388 1.001-1.164 1.269-2.66.13-.721.217-1.884-.21-1.884s-.963.609-1.581.997c-.952.554-5.645 3.603-6.805 3.603-.305 0-.316-.277-.276-.499.089-.499.817-1.497 1.404-2.383l7.86-11.528h-5.731zm7.918-9.468c-2.194 0-4.218 1.771-4.536 3.542-.248 1.383.6 2.767 2.307 2.767 2.194 0 4.218-1.771 4.536-3.542.248-1.384-.601-2.767-2.307-2.767z"/><path d="M203.949 489.408c-6.778 0-15.049 4.65-16.836 14.608-.798 4.447 1.609 6.991 6.06 6.991 4.519 0 7.393-1.383 10.865-4.425.5.27 1.079.436 1.689.436 1.22 0 2.204-.387 3.847-1.051.72-.276 1.054-.774 1.371-2.544.338-1.882.305-2.381.062-2.381-.18-.021-1.906 1.44-3.431 1.44-.426 0-.792 0-.955-.112.243-.674 1.004-1.517 1.125-2.192.121-.674-.083-1.573-.175-2.079.445-.443 1.55-.831 1.908-2.823.665-3.711-2.298-5.868-5.53-5.868zm-8.11 16.953c-2.015 0-3.148-.832-2.69-3.382.905-5.044 5.632-8.592 8.319-8.592 2.015 0 2.468 1.219 2.299 2.162-.222 1.224-3.492 1.778-4.128 5.324-.11.609.138 1.607.355 2.438-.679 1.052-2.934 2.05-4.155 2.05z"/><path d="M222.462 491.289c-.305 0-.669.331-1.052 1.104-1.219 2.716-7.92 7.427-8.742 7.926-1.511.942-2.281 1.497-2.49 2.661-.169.942-.567 3.158-.262 3.158.305 0 2.475-1.551 2.89-1.828h.122c-.77 1.216-2.579 3.818-2.818 5.147-.129.72.332 1.55 1.491 1.55 1.892 0 4.293-2.159 9.626-5.703 1.927-1.218 9.927-6.7 10.659-6.7.061 0 .102.111.092.167-.108.606-6.026 8.087-6.364 9.968-.288 1.604.996 2.268 3.132 2.268 2.989 0 10.427-3.707 12.484-5.311.284-.222.871-.776 1.15-2.328.278-1.552.102-2.273-.325-2.273-.122 0-7.048 4.601-8.696 4.601-.244 0-.255-.277-.205-.555.248-1.385 7.758-10.254 8.096-12.139.228-1.272-.549-2.043-2.867-2.043-3.112 0-15.41 8.695-16.081 8.695-.183 0-.295-.055-.275-.166.05-.277 3.872-5.599 5.62-8.199h-5.185z"/><path d="M242.032 504.304c-.875 4.878 2.088 6.703 6.662 6.703 5.191 0 10.322-2.433 13.777-4.703 1.47-1.056 1.783-1.778 2.061-3.327.139-.774.144-1.825-.283-1.825-.305 0-.902.608-2.077 1.382-1.58.996-7.655 4.27-11.502 4.27-1.527 0-2.925-1.056-2.766-1.945.09-.5.598-.611 1.636-.611 2.138 0 13.448-3.206 14.443-8.752.675-3.763-1.442-4.869-4.488-4.869-6.35 0-15.862 4.758-16.996 11.078l-.467 2.599zm16.094-8.087c-.428 2.385-7.584 4.493-9.863 4.603 1.383-2.606 5.45-6.211 8.625-6.211 1.038 0 1.407.665 1.238 1.608z"/><path d="M264.118 504.304c-.875 4.878 2.088 6.703 6.662 6.703 5.191 0 10.322-2.433 13.777-4.703 1.47-1.056 1.783-1.778 2.061-3.327.139-.774.144-1.825-.283-1.825-.305 0-.902.608-2.077 1.382-1.58.996-7.655 4.27-11.502 4.27-1.527 0-2.925-1.056-2.766-1.945.09-.5.598-.611 1.636-.611 2.138 0 13.448-3.206 14.443-8.752.675-3.763-1.442-4.869-4.488-4.869-6.35 0-15.862 4.758-16.996 11.078l-.467 2.599zm16.094-8.087c-.428 2.385-7.584 4.493-9.863 4.603 1.383-2.606 5.45-6.211 8.625-6.211 1.038 0 1.407.665 1.238 1.608z"/><path d="M294.812 491.014c-.129.72-.034 1.549.486 2.047-2.497 3.044-5.496 5.816-9.207 8.477-.355.277-.496.721-.834 2.605-.229 1.276-.348 1.94.079 1.94.366 0 9.43-6.319 12.302-9.424 1.053-1.108 1.427-1.496 2.646-1.496.609 0 1.139.11 1.079.443-.119.665-7.833 10.366-8.201 12.414-.357 1.991.5 2.987 3.182 2.987 2.622 0 8.538-2.711 12.441-5.422.619-.388.85-.998 1.059-2.162.299-1.663-.009-2.329-.375-2.329-.305 0-.751.444-1.734 1.165-1.471 1.053-5.864 3.437-6.474 3.437-.366 0-.773-.111-.684-.61.01-.056.243-.333.566-.776 3.651-5.045 6.454-8.427 6.752-10.088.338-1.88-1.04-3.041-3.053-3.041-1.099 0-2.317.331-2.988.331-.55 0-.423-1.384-.344-1.827.14-.776-.76-2.216-2.71-2.216-2.072 0-3.66 1.717-3.988 3.545zm46.046-1.606c-6.778 0-15.049 4.65-16.836 14.608-.798 4.447 1.609 6.991 6.06 6.991 4.519 0 7.393-1.383 10.865-4.425a3.56 3.56 0 001.689.436c1.22 0 2.204-.387 3.847-1.051.72-.276 1.053-.774 1.371-2.544.338-1.882.305-2.381.062-2.381-.18-.021-1.907 1.44-3.431 1.44-.426 0-.792 0-.955-.112.243-.674 1.004-1.517 1.125-2.192.121-.674-.083-1.573-.175-2.079.445-.443 1.55-.831 1.907-2.823.666-3.711-2.298-5.868-5.529-5.868zm-8.11 16.953c-2.015 0-3.148-.832-2.691-3.382.906-5.044 5.633-8.592 8.32-8.592 2.015 0 2.468 1.219 2.299 2.162-.222 1.224-3.492 1.778-4.128 5.324-.11.609.138 1.607.355 2.438-.679 1.052-2.934 2.05-4.155 2.05z"/><path d="M363.901 506.137c1.289-.721 1.702-1.663 1.95-3.048.249-1.385-.049-2.105-.293-2.105s-1.927 1.219-7.814 4.82c-.547.333-.697.831-.857 1.386a34.11 34.11 0 01-4.064 9.031c-2.204 3.435-4.291 5.873-5.207 5.873-.428 0-.561-.277-.442-.941.249-1.386 9.427-16.457 15.607-27.816 1.262-2.271 10.627-14.683 11.681-20.556.199-1.108-.111-2.099-1.576-2.099-4.27 0-7.925 11.186-16.043 23.819-.516.831-4.199 3.657-8.729 6.815-.557.388-1.032.998-1.32 2.604-.119.665-.398 2.217.029 2.217.487 0 4.905-3.214 5.179-3.38h.122c-1.545 2.826-9.637 16.678-10.194 19.78-.466 2.6.668 4.426 3.653 4.426 3.786 0 8.079-4.869 10.09-7.584 2.646-3.546 3.435-6.926 4.566-11.192l3.662-2.05zm28.175-14.851c-.444.776-.918 1.718-1.545 2.494-1.265 1.607-7.694 6.152-9.65 7.537-.7.499-.851.998-1.129 2.55-.269 1.496-.347 2.271.019 2.271.305 0 1.937-1.274 3.449-2.216l.102.111c-.747 1.441-2.204 3.101-2.482 4.65-.288 1.605.518 2.214 2.653 2.214 4.637 0 10.931-4.15 12.653-5.257.618-.388 1.001-1.164 1.269-2.66.13-.721.217-1.884-.21-1.884s-.963.609-1.581.997c-.952.554-5.645 3.603-6.805 3.603-.305 0-.316-.277-.276-.499.089-.499.817-1.497 1.404-2.383l7.86-11.528h-5.731zm7.918-9.468c-2.194 0-4.218 1.771-4.536 3.542-.248 1.383.6 2.767 2.307 2.767 2.194 0 4.218-1.771 4.536-3.542.248-1.384-.601-2.767-2.307-2.767z"/><path d="M408.607 491.289c-.305 0-.669.331-1.052 1.104-1.219 2.716-7.92 7.427-8.742 7.926-1.511.942-2.281 1.497-2.49 2.661-.169.942-.567 3.158-.262 3.158.305 0 2.475-1.551 2.89-1.828h.122c-.77 1.216-2.579 3.818-2.818 5.147-.129.72.332 1.55 1.491 1.55 1.892 0 4.293-2.159 9.626-5.703 1.927-1.218 9.927-6.7 10.659-6.7.061 0 .102.111.092.167-.108.606-6.027 8.087-6.364 9.968-.288 1.604.996 2.268 3.131 2.268 2.99 0 10.427-3.707 12.485-5.311.283-.222.871-.776 1.15-2.328.278-1.552.102-2.273-.325-2.273-.122 0-7.048 4.601-8.696 4.601-.244 0-.255-.277-.205-.555.248-1.385 7.758-10.254 8.096-12.139.228-1.272-.549-2.043-2.867-2.043-3.112 0-15.41 8.695-16.081 8.695-.183 0-.295-.055-.275-.166.05-.277 3.872-5.599 5.62-8.199h-5.185z"/><path d="M439.723 491.289c-.305 0-.669.331-1.052 1.104-1.219 2.716-7.92 7.427-8.742 7.926-1.511.942-2.281 1.497-2.49 2.661-.169.942-.567 3.158-.262 3.158.305 0 2.474-1.551 2.89-1.828h.122c-.771 1.216-2.58 3.818-2.818 5.147-.129.72.332 1.55 1.491 1.55 1.891 0 4.292-2.159 9.626-5.703 1.927-1.218 9.927-6.7 10.659-6.7.061 0 .102.111.092.167-.109.606-6.027 8.087-6.364 9.968-.288 1.604.996 2.268 3.131 2.268 2.99 0 10.427-3.707 12.484-5.311.284-.222.872-.776 1.15-2.328.279-1.552.103-2.273-.324-2.273-.122 0-7.049 4.601-8.696 4.601-.244 0-.255-.277-.206-.555.249-1.385 7.758-10.254 8.097-12.139.228-1.272-.549-2.043-2.867-2.043-3.112 0-15.41 8.695-16.081 8.695-.183 0-.295-.055-.275-.166.049-.277 3.872-5.599 5.619-8.199h-5.184z"/><path d="M475.509 489.408c-6.777 0-15.049 4.65-16.835 14.608-.798 4.447 1.609 6.991 6.06 6.991 4.518 0 7.392-1.383 10.864-4.425.5.27 1.08.436 1.69.436 1.219 0 2.203-.387 3.847-1.051.72-.276 1.053-.774 1.371-2.544.337-1.882.305-2.381.061-2.381-.18-.021-1.906 1.44-3.43 1.44-.427 0-.792 0-.955-.112.243-.674 1.003-1.517 1.124-2.192.121-.674-.083-1.573-.175-2.079.445-.443 1.55-.831 1.908-2.823.666-3.711-2.298-5.868-5.53-5.868zm-8.109 16.953c-2.015 0-3.149-.832-2.691-3.382.905-5.044 5.633-8.592 8.319-8.592 2.015 0 2.468 1.219 2.299 2.162-.222 1.224-3.492 1.778-4.128 5.324-.109.609.139 1.607.355 2.438-.678 1.052-2.933 2.05-4.154 2.05z"/><path d="M494.994 491.289c-.549 0-.996.11-1.803 1.547-1.838 3.104-9.6 7.982-10.828 8.702-.274.166-.454.832-.683 2.106-.407 2.273-.447 2.495-.142 2.495.427 0 1.805-1.22 3.661-2.384l.101.111c-.504.776-.866 1.774-1.075 2.938-.556 3.097 1.317 4.203 5.339 4.203 4.149 0 7.667-2.267 10.687-4.813.888.831 2.09 1.274 3.432 1.274.976 0 2.256-.332 4.173-1.496.751-.443 1.357-1.441 1.655-3.104.189-1.053.084-1.829-.343-1.829-.366 0-2.696 2.106-3.916 2.106-.611 0-1.171-.277-1.182-.554.01-.055 4.908-5.93 5.455-8.979.218-1.219.232-2.653-1.416-2.653-4.026 0-8.091 8.03-8.995 10.69-.18.665-5.785 5.376-8.103 5.376-.793 0-1.385-.443-1.256-1.164.388-2.161 5.087-6.928 8.521-12.803.273-.499.84-.942.919-1.383.04-.22-.236-.386-1.029-.386h-3.172z"/><path d="M528.881 497.602c-.488 0-1.485-.222-1.831-.333-2.64 3.493-8.16 9.092-11.271 9.092-.977 0-1.418-.943-1.238-1.941l.288-1.607c.836-4.657 8.711-8.426 13.592-8.426 2.502 0 4.468.942 4.468.942.183 0 .396-.166.455-.499.209-1.162.363-3.042.309-3.761-.855-.332-2.91-.442-4.374-.442-7.016 0-18.887 4.314-20.309 12.241l-.229 1.275c-.785 4.375 1.084 6.864 4.374 6.864h1.159c2.806 0 4.601-1.161 6.739-2.876-.45 1.825-.211 2.876 1.985 2.876 2.441 0 6.306-2.157 8.984-3.485 3.095-1.605 3.772-2.658 3.961-3.711.288-1.608.355-2.661-.194-2.661-.366 0-.944.499-1.501.887-1.734 1.164-6.107 3.769-6.778 3.769-.366 0-.57-.222-.53-.443.059-.333 3.103-4.712 5.297-7.761h-3.356z"/><path d="M547.701 483.868c-1.037 0-2.038 1.161-2.356 2.931-.119.663.015.94.503.94h3.293l-2.978 5.043c-.96 1.607-7.029 6.54-9.706 8.203-1.166.72-1.529 1.385-1.738 2.549-.388 2.162-.275 2.55.03 2.55.488 0 2.291-1.552 5.11-3.326h.122c-1.514 2.66-3.008 5.207-3.186 6.202-.308 1.715 1.462 2.047 2.926 2.047 2.988 0 8.628-2.876 10.392-3.872 2.84-1.55 3.203-2.215 3.521-3.989.259-1.441.073-2.106-.293-2.106-.427 0-7.38 5.099-8.904 5.099-.488 0-.753-.222-.664-.721.179-.997 5.746-9.588 10.918-17.679h3.294c1.28 0 1.967-1.106 2.245-2.655.169-.94-.026-1.216-.575-1.216h-2.805c1.726-2.826 4.848-7.646 5.086-8.975.239-1.33-.009-2.327-1.229-2.327-3.537 0-7.329 7.534-8.407 9.806l-.696 1.496h-3.903z"/><path d="M564.677 491.286c-.445.776-.919 1.718-1.546 2.494-1.265 1.607-7.693 6.152-9.65 7.537-.7.499-.85.998-1.129 2.55-.268 1.496-.346 2.271.02 2.271.305 0 1.937-1.274 3.448-2.216l.102.111c-.746 1.441-2.204 3.101-2.482 4.65-.287 1.605.518 2.214 2.654 2.214 4.637 0 10.93-4.15 12.652-5.257.618-.388 1.001-1.164 1.27-2.66.129-.721.216-1.884-.21-1.884-.427 0-.963.609-1.581.997-.953.554-5.646 3.603-6.805 3.603-.305 0-.316-.277-.277-.499.09-.499.818-1.497 1.404-2.383l7.861-11.528h-5.731zm7.917-9.468c-2.194 0-4.218 1.771-4.536 3.542-.248 1.383.601 2.767 2.307 2.767 2.194 0 4.218-1.771 4.536-3.542.248-1.384-.6-2.767-2.307-2.767z"/><path d="M585.879 489.408c-6.778 0-15.049 4.65-16.836 14.608-.798 4.447 1.609 6.991 6.06 6.991 4.518 0 7.392-1.383 10.865-4.425a3.56 3.56 0 001.689.436c1.219 0 2.203-.387 3.847-1.051.72-.276 1.053-.774 1.371-2.544.337-1.882.305-2.381.061-2.381-.179-.021-1.906 1.44-3.43 1.44-.427 0-.792 0-.955-.112.243-.674 1.003-1.517 1.124-2.192.121-.674-.083-1.573-.175-2.079.445-.443 1.551-.831 1.908-2.823.666-3.711-2.298-5.868-5.529-5.868zm-8.11 16.953c-2.015 0-3.148-.832-2.691-3.382.905-5.044 5.633-8.592 8.32-8.592 2.015 0 2.467 1.219 2.298 2.162-.222 1.224-3.491 1.778-4.128 5.324-.109.609.139 1.607.356 2.438-.679 1.052-2.934 2.05-4.155 2.05z"/><path d="M604.392 491.289c-.305 0-.669.331-1.052 1.104-1.219 2.716-7.92 7.427-8.742 7.926-1.511.942-2.281 1.497-2.49 2.661-.169.942-.567 3.158-.262 3.158.305 0 2.474-1.551 2.89-1.828h.122c-.771 1.216-2.58 3.818-2.818 5.147-.129.72.332 1.55 1.491 1.55 1.891 0 4.292-2.159 9.626-5.703 1.927-1.218 9.927-6.7 10.659-6.7.061 0 .102.111.092.167-.109.606-6.027 8.087-6.364 9.968-.288 1.604.996 2.268 3.131 2.268 2.99 0 10.427-3.707 12.484-5.311.284-.222.872-.776 1.15-2.328.279-1.552.103-2.273-.324-2.273-.122 0-7.049 4.601-8.696 4.601-.244 0-.255-.277-.206-.555.249-1.385 7.758-10.254 8.097-12.139.228-1.272-.549-2.043-2.867-2.043-3.112 0-15.41 8.695-16.081 8.695-.183 0-.295-.055-.275-.166.049-.277 3.872-5.599 5.619-8.199h-5.184zm21.394 16.453c-.338 1.882.45 3.265 2.644 3.265 2.56 0 5.193-2.103 5.61-4.428.308-1.716-.725-3.432-2.737-3.432-2.621 0-5.11 2.325-5.517 4.595zm15.252 0c-.337 1.882.451 3.265 2.645 3.265 2.56 0 5.193-2.103 5.61-4.428.308-1.716-.725-3.432-2.737-3.432-2.621 0-5.11 2.325-5.518 4.595zm15.253 0c-.338 1.882.45 3.265 2.645 3.265 2.56 0 5.192-2.103 5.61-4.428.307-1.716-.726-3.432-2.737-3.432-2.621 0-5.111 2.325-5.518 4.595z"/></g><path d="M361.017 427.415c0 4.567 1.298 7.979 3.893 10.237 2.595 2.258 6.176 3.386 10.743 3.386 2.387 0 4.722-.441 7.006-1.323 2.283-.882 4.411-2.18 6.383-3.892l4.048 4.593c-2.698 2.439-5.644 4.216-8.835 5.332a29.407 29.407 0 01-9.77 1.674c-6.643 0-11.69-1.661-15.141-4.982-3.452-3.322-5.177-8.304-5.177-14.947 0-4.619.532-9.095 1.596-13.429 1.063-4.333 2.789-8.174 5.176-11.521 2.388-3.348 5.502-6.033 9.342-8.057 3.841-2.024 8.537-3.036 14.09-3.036 3.166 0 6.176.518 9.031 1.556 2.854 1.038 5.19 2.725 7.006 5.061l-5.605 4.748c-1.349-1.661-3.036-2.893-5.06-3.698-2.024-.804-4.204-1.206-6.539-1.206-4.308 0-7.889.921-10.743 2.763-2.855 1.843-5.125 4.191-6.812 7.046-1.687 2.854-2.88 6.02-3.581 9.497-.7 3.477-1.051 6.877-1.051 10.198zm73.177-5.527c0-3.114-.986-5.527-2.958-7.24-1.973-1.713-4.516-2.569-7.629-2.569-2.803 0-5.19.597-7.162 1.791a15.524 15.524 0 00-4.866 4.593c-1.271 1.868-2.206 3.97-2.802 6.305-.597 2.336-.896 4.619-.896 6.851 0 3.373.896 5.89 2.686 7.551 1.791 1.661 4.399 2.491 7.824 2.491 2.699 0 5.034-.584 7.006-1.751a15.53 15.53 0 004.904-4.555c1.298-1.868 2.271-3.983 2.92-6.344.648-2.361.973-4.736.973-7.123zm-16.893 25.534c-2.18 0-4.204-.325-6.072-.973-1.869-.649-3.49-1.596-4.866-2.842-1.375-1.245-2.439-2.75-3.191-4.515-.753-1.764-1.129-3.737-1.129-5.916 0-3.27.428-6.514 1.284-9.731.857-3.218 2.206-6.085 4.048-8.602 1.843-2.517 4.178-4.567 7.007-6.15 2.828-1.583 6.214-2.375 10.159-2.375 2.283 0 4.372.351 6.266 1.051 1.895.701 3.53 1.713 4.905 3.036 1.375 1.324 2.452 2.907 3.231 4.749.778 1.842 1.167 3.879 1.167 6.111 0 3.373-.519 6.63-1.557 9.77-1.038 3.14-2.53 5.916-4.476 8.33-1.946 2.413-4.333 4.359-7.162 5.838-2.828 1.479-6.033 2.219-9.614 2.219zm35.109-54.104l7.006-1.868-8.018 45.54c-.052.26-.078.48-.078.662v.584c0 2.283 1.376 3.425 4.126 3.425h3.97l-.856 4.827a27.69 27.69 0 01-2.802.661 15.48 15.48 0 01-2.803.273c-2.647 0-4.71-.831-6.189-2.491-1.479-1.661-2.218-3.711-2.218-6.15a11.477 11.477 0 01.155-1.869l7.707-43.594zm18.995 0l7.006-1.868-8.018 45.54c-.052.26-.078.48-.078.662v.584c0 2.283 1.375 3.425 4.126 3.425h3.97l-.856 4.827a27.71 27.71 0 01-2.803.661 15.46 15.46 0 01-2.802.273c-2.647 0-4.71-.831-6.189-2.491-1.479-1.661-2.219-3.711-2.219-6.15a11.2 11.2 0 01.156-1.869l7.707-43.594zm49.122 24.444c0 2.647-.545 4.788-1.635 6.422a11.557 11.557 0 01-4.282 3.854c-1.764.934-3.723 1.596-5.877 1.985a61.103 61.103 0 01-6.423.817l-12.066.779v1.09c0 1.66.298 3.062.895 4.203.597 1.142 1.363 2.063 2.297 2.764.934.701 2.011 1.207 3.23 1.518 1.22.311 2.453.467 3.698.467 2.128 0 4.087-.428 5.878-1.284 1.79-.857 3.412-2.037 4.865-3.542l5.449 2.413c-2.076 2.647-4.619 4.671-7.629 6.072-3.01 1.401-6.201 2.102-9.575 2.102-4.723 0-8.511-1.194-11.366-3.581-2.854-2.387-4.281-6.124-4.281-11.21 0-3.374.48-6.643 1.44-9.809.96-3.166 2.387-5.968 4.282-8.407 1.894-2.44 4.281-4.399 7.162-5.878 2.88-1.479 6.24-2.219 10.081-2.219 4.619 0 8.083 1.09 10.392 3.27 2.31 2.18 3.465 4.904 3.465 8.174zm-17.205 7.318a23.534 23.534 0 003.62-.467 12.767 12.767 0 003.503-1.246 7.576 7.576 0 002.608-2.258c.675-.934 1.012-2.127 1.012-3.581 0-1.505-.726-2.789-2.179-3.853-1.454-1.064-3.555-1.596-6.306-1.596-1.972 0-3.763.376-5.372 1.129a14.968 14.968 0 00-4.281 2.997 16.623 16.623 0 00-3.114 4.359 20.599 20.599 0 00-1.791 5.294l12.3-.778zm45.697-18.762c2.128 0 4.268.377 6.422 1.129 2.154.753 3.983 2.037 5.488 3.854l-4.826 4.048c-1.194-1.194-2.439-2.037-3.737-2.53-1.297-.493-2.854-.74-4.671-.74-2.595 0-4.865.571-6.811 1.713a16.06 16.06 0 00-4.905 4.437c-1.323 1.816-2.309 3.866-2.958 6.15a24.953 24.953 0 00-.973 6.851c0 3.373.882 5.955 2.647 7.745 1.764 1.791 4.359 2.686 7.785 2.686 1.557 0 3.243-.259 5.06-.778 1.816-.519 3.347-1.402 4.593-2.647l3.425 3.97c-2.024 1.816-4.256 3.14-6.695 3.97a22.791 22.791 0 01-7.395 1.246c-2.284 0-4.373-.312-6.267-.934-1.894-.623-3.529-1.531-4.905-2.725-1.375-1.194-2.452-2.686-3.23-4.476-.779-1.791-1.168-3.828-1.168-6.111 0-3.737.454-7.24 1.362-10.51.909-3.269 2.31-6.111 4.204-8.524 1.894-2.413 4.295-4.32 7.201-5.722 2.906-1.401 6.358-2.102 10.354-2.102zm21.953 6.15h-4.438l.857-5.215h4.437l1.479-8.408 7.084-1.868-1.868 10.276h7.162l-2.491 5.215h-5.527l-4.36 24.522c-.104.519-.156.908-.156 1.168 0 2.335 1.376 3.503 4.126 3.503h2.881l-.857 4.904c-.778.26-1.518.468-2.218.623-.701.156-1.466.234-2.297.234-2.491 0-4.502-.792-6.033-2.375-1.531-1.582-2.296-3.619-2.296-6.111v-.973c0-.337.051-.661.155-.973l4.36-24.522zm17.126 34.02l6.929-39.235h6.694l-6.928 39.235h-6.695zm11.989-55.038c1.038 0 1.92.35 2.646 1.05.727.701 1.09 1.57 1.09 2.608s-.363 1.908-1.09 2.608c-.726.701-1.608 1.051-2.646 1.051-1.038 0-1.921-.35-2.647-1.051-.727-.7-1.09-1.57-1.09-2.608s.363-1.907 1.09-2.608c.726-.7 1.609-1.05 2.647-1.05zm39.079 30.438c0-3.114-.986-5.527-2.958-7.24-1.972-1.713-4.515-2.569-7.629-2.569-2.803 0-5.19.597-7.162 1.791a15.535 15.535 0 00-4.866 4.593c-1.271 1.868-2.205 3.97-2.802 6.305-.597 2.336-.895 4.619-.895 6.851 0 3.373.895 5.89 2.685 7.551 1.791 1.661 4.399 2.491 7.824 2.491 2.699 0 5.034-.584 7.006-1.751a15.543 15.543 0 004.905-4.555c1.297-1.868 2.27-3.983 2.919-6.344s.973-4.736.973-7.123zm-16.893 25.534c-2.18 0-4.204-.325-6.072-.973-1.868-.649-3.49-1.596-4.865-2.842-1.376-1.245-2.44-2.75-3.192-4.515-.753-1.764-1.129-3.737-1.129-5.916 0-3.27.428-6.514 1.285-9.731.856-3.218 2.205-6.085 4.048-8.602 1.842-2.517 4.177-4.567 7.006-6.15 2.828-1.583 6.215-2.375 10.159-2.375 2.284 0 4.372.351 6.267 1.051 1.894.701 3.529 1.713 4.904 3.036 1.375 1.324 2.452 2.907 3.231 4.749.778 1.842 1.167 3.879 1.167 6.111 0 3.373-.518 6.63-1.556 9.77-1.038 3.14-2.53 5.916-4.477 8.33-1.946 2.413-4.333 4.359-7.162 5.838-2.828 1.479-6.033 2.219-9.614 2.219zm50.835-35.343c-1.661 0-3.504.337-5.528 1.012-2.024.675-3.736 1.635-5.138 2.88l-5.371 30.517h-6.695l5.216-29.582c.104-.519.182-1.025.233-1.518.052-.493.078-.999.078-1.518 0-.831-.065-1.635-.194-2.414a13.162 13.162 0 00-.584-2.257l6.695-2.881c.571 1.35.934 2.881 1.09 4.593h.467c1.349-1.401 3.062-2.517 5.138-3.347 2.076-.83 3.996-1.246 5.76-1.246 3.893 0 7.007 1.025 9.342 3.075 2.335 2.05 3.503 4.866 3.503 8.447 0 1.038-.078 2.102-.233 3.192l-4.516 25.456h-6.694l4.515-25.534c.052-.364.091-.701.116-1.012.026-.312.039-.623.039-.934 0-2.076-.622-3.75-1.868-5.022-1.246-1.271-3.036-1.907-5.371-1.907z" fill="#fff" fill-rule="nonzero"/><defs><linearGradient id="_Linear1" x1="0" y1="0" x2="1" y2="0" gradientUnits="userSpaceOnUse" gradientTransform="matrix(0 458.722 -5343.31 0 358.002 3.211)"><stop offset="0" stop-color="#5a0000"/><stop offset=".47" stop-color="#ed1f24"/><stop offset=".59" stop-color="#ed1f24"/><stop offset="1" stop-color="#790102"/></linearGradient></defs></svg>